<svg width="1165" height="733" viewBox="0 0 1165 733" fill="none" xmlns="http://www.w3.org/2000/svg">
<circle cx="322.5" cy="103.601" r="2.5" fill="white"/>
<circle cx="93.5" cy="29.5" r="2.5" fill="white"/>
<circle cx="166.5" cy="465.601" r="2.5" fill="white"/>
<circle cx="428.5" cy="382.601" r="2.5" fill="white"/>
<circle cx="289.5" cy="234.601" r="2.5" fill="white"/>
<circle cx="770.5" cy="512.601" r="2.5" fill="white"/>
<circle cx="712.5" cy="315.601" r="2.5" fill="white"/>
<circle cx="931.5" cy="413.601" r="2.5" fill="white"/>
<circle cx="544.5" cy="637.601" r="2.5" fill="white"/>
<circle cx="704.5" cy="730.5" r="2.5" fill="white"/>
<circle cx="1037.5" cy="196.5" r="2.5" fill="white"/>
<circle cx="1162.5" cy="100.5" r="2.5" fill="white"/>
<circle cx="539.5" cy="285.5" r="2.5" fill="white"/>
<circle cx="734.5" cy="115.5" r="2.5" fill="white"/>
<circle cx="428.5" cy="160.5" r="2.5" fill="white"/>
<circle cx="2.5" cy="415.5" r="2.5" fill="white"/>
<circle cx="327.5" cy="553.5" r="2.5" fill="white"/>
<circle cx="613.5" cy="470.5" r="2.5" fill="white"/>
<circle cx="1097.5" cy="320.5" r="2.5" fill="white"/>
<circle cx="1162.5" cy="601.5" r="2.5" fill="white"/>
<circle cx="1135.5" cy="720.5" r="2.5" fill="white"/>
<circle cx="1034.5" cy="567.5" r="2.5" fill="white"/>
<circle cx="63.5" cy="725.5" r="2.5" fill="white"/>
<circle cx="171.5" cy="642.5" r="2.5" fill="white"/>
<circle cx="398.5" cy="707.5" r="2.5" fill="white"/>
<circle cx="910.5" cy="632.5" r="2.5" fill="white"/>
<circle cx="926.5" cy="3.60095" r="2.5" fill="white"/>
<line x1="93.0769" y1="28.8631" x2="322.077" y2="102.863" stroke="white" stroke-width="0.5" stroke-dasharray="1 7"/>
<line x1="93.2467" y1="29.0606" x2="164.247" y2="463.061" stroke="white" stroke-width="0.5" stroke-dasharray="1 7"/>
<line x1="931.75" y1="413.104" x2="926.747" y2="1.00301" stroke="white" stroke-width="0.5" stroke-dasharray="1 7"/>
<line x1="1162.9" y1="101.23" x2="926.899" y2="1.23016" stroke="white" stroke-width="0.5" stroke-dasharray="1 7"/>
<line x1="1163.15" y1="101.201" x2="1038.15" y2="194.201" stroke="white" stroke-width="0.5" stroke-dasharray="1 7"/>
<line x1="735.063" y1="114.758" x2="1038.06" y2="193.758" stroke="white" stroke-width="0.5" stroke-dasharray="1 7"/>
<line x1="734.875" y1="114.784" x2="926.875" y2="3.78357" stroke="white" stroke-width="0.5" stroke-dasharray="1 7"/>
<line x1="711.794" y1="314.96" x2="926.79" y2="0.858757" stroke="white" stroke-width="0.5" stroke-dasharray="1 7"/>
<line x1="772.761" y1="510.029" x2="926.757" y2="0.927579" stroke="white" stroke-width="0.5" stroke-dasharray="1 7"/>
<line x1="712.239" y1="315.026" x2="773.239" y2="510.026" stroke="white" stroke-width="0.5" stroke-dasharray="1 7"/>
<line x1="288.758" y1="234.04" x2="321.758" y2="103.04" stroke="white" stroke-width="0.5" stroke-dasharray="1 7"/>
<line x1="539.815" y1="286.168" x2="425.815" y2="160.168" stroke="white" stroke-width="0.5" stroke-dasharray="1 7"/>
<line x1="540.165" y1="286.188" x2="429.164" y2="383.188" stroke="white" stroke-width="0.5" stroke-dasharray="1 7"/>
<line x1="429.25" y1="163" x2="429.25" y2="383" stroke="white" stroke-width="0.5" stroke-dasharray="1 7"/>
<line x1="289.22" y1="234.219" x2="166.22" y2="463.219" stroke="white" stroke-width="0.5" stroke-dasharray="1 7"/>
<line x1="171.153" y1="643.198" x2="64.1532" y2="726.198" stroke="white" stroke-width="0.5" stroke-dasharray="1 7"/>
<line x1="170.799" y1="643.149" x2="2.79904" y2="416.149" stroke="white" stroke-width="0.5" stroke-dasharray="1 7"/>
<line x1="163.93" y1="463.24" x2="2.92994" y2="416.24" stroke="white" stroke-width="0.5" stroke-dasharray="1 7"/>
<line x1="164.25" y1="462.99" x2="171.25" y2="642.99" stroke="white" stroke-width="0.5" stroke-dasharray="1 7"/>
<line x1="328.228" y1="553.897" x2="396.228" y2="704.897" stroke="white" stroke-width="0.5" stroke-dasharray="1 7"/>
<line x1="328.088" y1="553.766" x2="542.089" y2="634.766" stroke="white" stroke-width="0.5" stroke-dasharray="1 7"/>
<line x1="611.23" y1="471.097" x2="542.23" y2="635.097" stroke="white" stroke-width="0.5" stroke-dasharray="1 7"/>
<path d="M611.059 470.757L771.059 509.757" stroke="white" stroke-width="0.5" stroke-dasharray="1 7"/>
<path d="M705 731L771.059 509.757" stroke="white" stroke-width="0.5" stroke-dasharray="1 7"/>
<path d="M705 731L614 471" stroke="white" stroke-width="0.5" stroke-dasharray="1 7"/>
<line x1="171.153" y1="643.198" x2="64.1532" y2="726.198" stroke="white" stroke-width="0.5" stroke-dasharray="1 7"/>
<line x1="171.153" y1="643.198" x2="64.1532" y2="726.198" stroke="white" stroke-width="0.5" stroke-dasharray="1 7"/>
<line x1="428.075" y1="383.339" x2="164.075" y2="466.339" stroke="white" stroke-width="0.5" stroke-dasharray="1 7"/>
<line x1="931.902" y1="411.331" x2="712.902" y2="318.331" stroke="white" stroke-width="0.5" stroke-dasharray="1 7"/>
<line x1="931.881" y1="410.881" x2="1097.88" y2="320.78" stroke="white" stroke-width="0.5" stroke-dasharray="1 7"/>
<line x1="1162.76" y1="602.056" x2="1097.76" y2="321.056" stroke="white" stroke-width="0.5" stroke-dasharray="1 7"/>
<line x1="1034.76" y1="564.938" x2="1097.76" y2="320.938" stroke="white" stroke-width="0.5" stroke-dasharray="1 7"/>
<line x1="1035.06" y1="564.758" x2="1163.06" y2="598.758" stroke="white" stroke-width="0.5" stroke-dasharray="1 7"/>
<line x1="1035.12" y1="565.218" x2="911.123" y2="635.218" stroke="white" stroke-width="0.5" stroke-dasharray="1 7"/>
<line x1="1034.79" y1="565.139" x2="931.792" y2="411.139" stroke="white" stroke-width="0.5" stroke-dasharray="1 7"/>
<line x1="1132.75" y1="721.022" x2="1097.75" y2="321.022" stroke="white" stroke-width="0.5" stroke-dasharray="1 7"/>
</svg>
