<svg width="176" height="357" viewBox="0 0 176 357" fill="none" xmlns="http://www.w3.org/2000/svg">
<circle cx="0.5" cy="0.5" r="0.5" transform="matrix(-0.440628 0.89769 0.89769 0.440628 174.929 0)" fill="white"/>
<circle cx="0.5" cy="0.5" r="0.5" transform="matrix(-0.440628 0.89769 0.89769 0.440628 170.082 9.87457)" fill="white"/>
<circle cx="0.5" cy="0.5" r="0.5" transform="matrix(-0.440628 0.89769 0.89769 0.440628 165.235 19.7491)" fill="white"/>
<circle cx="0.5" cy="0.5" r="0.5" transform="matrix(-0.440628 0.89769 0.89769 0.440628 160.388 29.6238)" fill="white"/>
<circle cx="0.5" cy="0.5" r="0.5" transform="matrix(-0.440628 0.89769 0.89769 0.440628 155.542 39.4984)" fill="white"/>
<circle cx="0.5" cy="0.5" r="0.5" transform="matrix(-0.440628 0.89769 0.89769 0.440628 150.695 49.3729)" fill="white"/>
<circle cx="0.5" cy="0.5" r="0.5" transform="matrix(-0.440628 0.89769 0.89769 0.440628 145.848 59.2475)" fill="white"/>
<circle cx="0.5" cy="0.5" r="0.5" transform="matrix(-0.440628 0.89769 0.89769 0.440628 141.001 69.1221)" fill="white"/>
<circle cx="0.5" cy="0.5" r="0.5" transform="matrix(-0.440628 0.89769 0.89769 0.440628 136.154 78.9967)" fill="white"/>
<circle cx="0.5" cy="0.5" r="0.5" transform="matrix(-0.440628 0.89769 0.89769 0.440628 131.307 88.8713)" fill="white"/>
<circle cx="0.5" cy="0.5" r="0.5" transform="matrix(-0.440628 0.89769 0.89769 0.440628 126.46 98.7458)" fill="white"/>
<circle cx="0.5" cy="0.5" r="0.5" transform="matrix(-0.440628 0.89769 0.89769 0.440628 121.613 108.62)" fill="white"/>
<circle cx="0.5" cy="0.5" r="0.5" transform="matrix(-0.440628 0.89769 0.89769 0.440628 116.766 118.495)" fill="white"/>
<circle cx="0.5" cy="0.5" r="0.5" transform="matrix(-0.440628 0.89769 0.89769 0.440628 111.919 128.37)" fill="white"/>
<circle cx="0.5" cy="0.5" r="0.5" transform="matrix(-0.440628 0.89769 0.89769 0.440628 107.073 138.244)" fill="white"/>
<circle cx="0.5" cy="0.5" r="0.5" transform="matrix(-0.440628 0.89769 0.89769 0.440628 102.226 148.119)" fill="white"/>
<circle cx="0.5" cy="0.5" r="0.5" transform="matrix(-0.440628 0.89769 0.89769 0.440628 97.3787 157.993)" fill="white"/>
<circle cx="0.5" cy="0.5" r="0.5" transform="matrix(-0.440628 0.89769 0.89769 0.440628 92.5317 167.868)" fill="white"/>
<circle cx="0.5" cy="0.5" r="0.5" transform="matrix(-0.440628 0.89769 0.89769 0.440628 87.6848 177.743)" fill="white"/>
<circle cx="0.5" cy="0.5" r="0.5" transform="matrix(-0.440628 0.89769 0.89769 0.440628 82.8379 187.617)" fill="white"/>
<circle cx="0.5" cy="0.5" r="0.5" transform="matrix(-0.440628 0.89769 0.89769 0.440628 77.991 197.492)" fill="white"/>
<circle cx="0.5" cy="0.5" r="0.5" transform="matrix(-0.440628 0.89769 0.89769 0.440628 73.144 207.366)" fill="white"/>
<circle cx="0.5" cy="0.5" r="0.5" transform="matrix(-0.440628 0.89769 0.89769 0.440628 68.2971 217.241)" fill="white"/>
<circle cx="0.5" cy="0.5" r="0.5" transform="matrix(-0.440628 0.89769 0.89769 0.440628 63.4502 227.115)" fill="white"/>
<circle cx="0.5" cy="0.5" r="0.5" transform="matrix(-0.440628 0.89769 0.89769 0.440628 58.6035 236.99)" fill="white"/>
<circle cx="0.5" cy="0.5" r="0.5" transform="matrix(-0.440628 0.89769 0.89769 0.440628 53.7566 246.865)" fill="white"/>
<circle cx="0.5" cy="0.5" r="0.5" transform="matrix(-0.440628 0.89769 0.89769 0.440628 48.9097 256.739)" fill="white"/>
<circle cx="0.5" cy="0.5" r="0.5" transform="matrix(-0.440628 0.89769 0.89769 0.440628 44.0627 266.614)" fill="white"/>
<circle cx="0.5" cy="0.5" r="0.5" transform="matrix(-0.440628 0.89769 0.89769 0.440628 39.2158 276.488)" fill="white"/>
<circle cx="0.5" cy="0.5" r="0.5" transform="matrix(-0.440628 0.89769 0.89769 0.440628 34.3689 286.363)" fill="white"/>
<circle cx="0.5" cy="0.5" r="0.5" transform="matrix(-0.440628 0.89769 0.89769 0.440628 29.522 296.238)" fill="white"/>
<circle cx="0.5" cy="0.5" r="0.5" transform="matrix(-0.440628 0.89769 0.89769 0.440628 24.675 306.112)" fill="white"/>
<circle cx="0.5" cy="0.5" r="0.5" transform="matrix(-0.440628 0.89769 0.89769 0.440628 19.8281 315.987)" fill="white"/>
<circle cx="0.5" cy="0.5" r="0.5" transform="matrix(-0.440628 0.89769 0.89769 0.440628 14.9812 325.861)" fill="white"/>
<circle cx="0.5" cy="0.5" r="0.5" transform="matrix(-0.440628 0.89769 0.89769 0.440628 10.1343 335.736)" fill="white"/>
<circle cx="0.5" cy="0.5" r="0.5" transform="matrix(-0.440628 0.89769 0.89769 0.440628 5.28735 345.611)" fill="white"/>
<circle cx="0.5" cy="0.5" r="0.5" transform="matrix(-0.440628 0.89769 0.89769 0.440628 0.44043 355.485)" fill="white"/>
</svg>
