<svg width="2342" height="2" viewBox="0 0 2342 2" fill="none" xmlns="http://www.w3.org/2000/svg">
<circle cx="1" cy="1" r="1" fill="white"/>
<circle cx="31" cy="1" r="1" fill="white"/>
<circle cx="61" cy="1" r="1" fill="white"/>
<circle cx="91" cy="1" r="1" fill="white"/>
<circle cx="121" cy="1" r="1" fill="white"/>
<circle cx="151" cy="1" r="1" fill="white"/>
<circle cx="181" cy="1" r="1" fill="white"/>
<circle cx="211" cy="1" r="1" fill="white"/>
<circle cx="241" cy="1" r="1" fill="white"/>
<circle cx="271" cy="1" r="1" fill="white"/>
<circle cx="301" cy="1" r="1" fill="white"/>
<circle cx="331" cy="1" r="1" fill="white"/>
<circle cx="361" cy="1" r="1" fill="white"/>
<circle cx="391" cy="1" r="1" fill="white"/>
<circle cx="421" cy="1" r="1" fill="white"/>
<circle cx="451" cy="1" r="1" fill="white"/>
<circle cx="481" cy="1" r="1" fill="white"/>
<circle cx="511" cy="1" r="1" fill="white"/>
<circle cx="541" cy="1" r="1" fill="white"/>
<circle cx="571" cy="1" r="1" fill="white"/>
<circle cx="601" cy="1" r="1" fill="white"/>
<circle cx="631" cy="1" r="1" fill="white"/>
<circle cx="661" cy="1" r="1" fill="white"/>
<circle cx="691" cy="1" r="1" fill="white"/>
<circle cx="721" cy="1" r="1" fill="white"/>
<circle cx="751" cy="1" r="1" fill="white"/>
<circle cx="781" cy="1" r="1" fill="white"/>
<circle cx="811" cy="1" r="1" fill="white"/>
<circle cx="841" cy="1" r="1" fill="white"/>
<circle cx="871" cy="1" r="1" fill="white"/>
<circle cx="901" cy="1" r="1" fill="white"/>
<circle cx="931" cy="1" r="1" fill="white"/>
<circle cx="961" cy="1" r="1" fill="white"/>
<circle cx="991" cy="1" r="1" fill="white"/>
<circle cx="1021" cy="1" r="1" fill="white"/>
<circle cx="1051" cy="1" r="1" fill="white"/>
<circle cx="1081" cy="1" r="1" fill="white"/>
<circle cx="1111" cy="1" r="1" fill="white"/>
<circle cx="1141" cy="1" r="1" fill="white"/>
<circle cx="1171" cy="1" r="1" fill="white"/>
<circle cx="1201" cy="1" r="1" fill="white"/>
<circle cx="1231" cy="1" r="1" fill="white"/>
<circle cx="1261" cy="1" r="1" fill="white"/>
<circle cx="1291" cy="1" r="1" fill="white"/>
<circle cx="1321" cy="1" r="1" fill="white"/>
<circle cx="1351" cy="1" r="1" fill="white"/>
<circle cx="1381" cy="1" r="1" fill="white"/>
<circle cx="1411" cy="1" r="1" fill="white"/>
<circle cx="1441" cy="1" r="1" fill="white"/>
<circle cx="1471" cy="1" r="1" fill="white"/>
<circle cx="1501" cy="1" r="1" fill="white"/>
<circle cx="1531" cy="1" r="1" fill="white"/>
<circle cx="1561" cy="1" r="1" fill="white"/>
<circle cx="1591" cy="1" r="1" fill="white"/>
<circle cx="1621" cy="1" r="1" fill="white"/>
<circle cx="1651" cy="1" r="1" fill="white"/>
<circle cx="1681" cy="1" r="1" fill="white"/>
<circle cx="1711" cy="1" r="1" fill="white"/>
<circle cx="1741" cy="1" r="1" fill="white"/>
<circle cx="1771" cy="1" r="1" fill="white"/>
<circle cx="1801" cy="1" r="1" fill="white"/>
<circle cx="1831" cy="1" r="1" fill="white"/>
<circle cx="1861" cy="1" r="1" fill="white"/>
<circle cx="1891" cy="1" r="1" fill="white"/>
<circle cx="1921" cy="1" r="1" fill="white"/>
<circle cx="1951" cy="1" r="1" fill="white"/>
<circle cx="1981" cy="1" r="1" fill="white"/>
<circle cx="2011" cy="1" r="1" fill="white"/>
<circle cx="2041" cy="1" r="1" fill="white"/>
<circle cx="2071" cy="1" r="1" fill="white"/>
<circle cx="2101" cy="1" r="1" fill="white"/>
<circle cx="2131" cy="1" r="1" fill="white"/>
<circle cx="2161" cy="1" r="1" fill="white"/>
<circle cx="2191" cy="1" r="1" fill="white"/>
<circle cx="2221" cy="1" r="1" fill="white"/>
<circle cx="2251" cy="1" r="1" fill="white"/>
<circle cx="2281" cy="1" r="1" fill="white"/>
<circle cx="2311" cy="1" r="1" fill="white"/>
<circle cx="2341" cy="1" r="1" fill="white"/>
</svg>
