<svg width="865" height="290" viewBox="0 0 865 290" fill="none" xmlns="http://www.w3.org/2000/svg">
<path d="M29.5631 140.056L0 34.1225H11.5222L38.1996 131.722L36.3726 131.867L65.6244 34.1018H78.9527L107.893 131.867L105.921 131.722L133.657 34.1225H145.013L113.955 140.056H100.004L70.6069 40.9222H73.638L43.9295 140.056H29.5424H29.5631Z" fill="white"/>
<path d="M151.407 62.4197V53.9409H256.726V62.4197H151.407ZM162.929 140.056V34.1225H174.452V140.056H162.929ZM165.192 90.4267V81.0358H242.629V90.4267H165.192ZM233.702 140.056V34.1225H245.058V140.056H233.702Z" fill="white"/>
<path d="M273.085 138.688V32.7543H284.608V138.688H273.085ZM277.943 41.9794V32.7543H347.346V41.9794H277.943ZM277.943 89.3488V80.1237H339.769V89.3488H277.943ZM277.943 138.688V129.462H348.862V138.688H277.943Z" fill="white"/>
<path d="M490.159 139.372V33.4384H501.681V139.372H490.159ZM495.017 42.6635V33.4384H564.419V42.6635H495.017ZM495.017 90.0329V80.8078H556.842V90.0329H495.017ZM495.017 139.372V130.147H565.935V139.372H495.017Z" fill="white"/>
<path d="M416.687 144.741C405.663 144.741 395.573 142.15 386.459 136.946C377.345 131.764 370.141 124.736 364.91 115.884C359.657 107.032 357.042 97.2679 357.042 86.5709C357.042 75.8739 359.678 66.1098 364.91 57.2579C370.162 48.4059 377.345 41.399 386.459 36.1956C395.573 31.013 405.663 28.4216 416.687 28.4216C427.711 28.4216 437.946 31.013 447.08 36.1956C456.194 41.3782 463.398 48.4059 468.651 57.2579C473.903 66.1098 476.519 75.8739 476.519 86.5709C476.519 97.2679 473.903 107.053 468.651 115.884C463.398 124.715 456.215 131.743 447.08 136.946C437.946 142.129 427.835 144.741 416.687 144.741ZM416.687 139.019C426.548 139.019 435.558 136.801 443.738 132.344C451.897 127.887 458.374 121.668 463.149 113.666C467.924 105.664 470.312 96.6459 470.312 86.5709C470.312 76.4958 467.924 67.478 463.149 59.476C458.374 51.474 451.897 45.2549 443.738 40.7978C435.558 36.3407 426.548 34.1225 416.687 34.1225C406.826 34.1225 397.961 36.3407 389.802 40.7978C381.622 45.2549 375.166 51.474 370.391 59.476C365.616 67.478 363.228 76.4958 363.228 86.5709C363.228 96.6459 365.616 105.664 370.391 113.666C375.166 121.668 381.622 127.887 389.802 132.344C397.961 136.801 406.929 139.019 416.687 139.019ZM393.622 117.418V56.2421H420.839C427.939 56.2421 433.233 57.6517 436.679 60.4504C440.126 63.249 441.849 67.478 441.849 73.0753C441.849 77.947 440.416 81.8236 437.551 84.6844C434.686 87.5452 430.555 89.2866 425.136 89.9292L444.07 117.418H432.299L414.632 90.0951H402.86V117.418H393.622ZM419.074 82.943C423.413 82.943 426.652 82.1138 428.79 80.4761C430.908 78.8384 431.967 76.4751 431.967 73.407C431.967 70.0279 430.949 67.5195 428.936 65.944C426.922 64.3477 423.849 63.56 419.718 63.56H402.86V82.943H419.095H419.074Z" fill="white"/>
<path d="M600.709 24.3584L620.868 0H630.272L650.431 24.3584H639.967L621.179 1.65845L630.127 1.20237L610.736 24.3584H600.73H600.709ZM619.643 140.74V34.8066H631.165V140.74H619.643Z" fill="white"/>
<path d="M693.613 146.482C685.724 146.482 678.665 145.28 672.396 142.854C666.126 140.429 661.06 136.988 657.157 132.489C653.275 128.011 650.721 122.683 649.497 116.527H661.475C662.493 120.673 664.507 124.321 667.538 127.493C670.569 130.665 674.368 133.152 678.894 134.915C683.44 136.677 688.381 137.568 693.737 137.568C699.696 137.568 704.907 136.718 709.349 134.997C713.792 133.277 717.197 130.851 719.584 127.742C721.951 124.611 723.155 120.984 723.155 116.837C723.155 111.489 721.432 107.218 718.007 104.047C714.581 100.875 708.955 98.2629 701.191 96.252L679.662 90.7999C670.776 88.5817 664.195 85.2234 659.96 80.7456C655.725 76.247 653.586 70.629 653.586 63.8709C653.586 58.2322 655.185 53.2775 658.361 49.0485C661.538 44.8195 666.084 41.544 672.001 39.2015C677.918 36.8797 684.748 35.7188 692.533 35.7188C699.903 35.7188 706.505 36.8797 712.318 39.2015C718.131 41.5233 722.782 44.9024 726.269 49.3387C729.757 53.7751 731.958 59.0199 732.871 65.0732H721.204C720 58.9163 716.761 53.9824 711.509 50.2509C706.256 46.5194 699.737 44.6536 691.952 44.6536C686.803 44.6536 682.195 45.4207 678.167 46.9133C674.119 48.4266 670.963 50.5618 668.7 53.3397C666.416 56.1176 665.295 59.3723 665.295 63.1038C665.295 67.7475 666.915 71.5619 670.153 74.5264C673.392 77.5116 678.686 79.8541 686.077 81.554L707.44 86.8611C713.709 88.3744 718.858 90.4475 722.906 93.0595C726.954 95.6923 729.923 98.8641 731.854 102.596C733.764 106.327 734.74 110.556 734.74 115.303C734.74 121.564 733.037 127.037 729.653 131.722C726.269 136.407 721.494 140.035 715.329 142.626C709.163 145.197 701.938 146.482 693.654 146.482H693.613Z" fill="white"/>
<path d="M561.077 286.828C552.897 286.828 545.797 284.652 539.776 280.319C533.756 275.986 529.105 269.788 525.825 261.703C522.545 253.639 520.905 244.103 520.905 233.095C520.905 222.087 522.545 212.385 525.825 204.258C529.105 196.132 533.777 189.913 539.839 185.559C545.901 181.227 552.98 179.05 561.056 179.05C569.132 179.05 576.211 181.227 582.273 185.559C588.336 189.892 593.007 196.132 596.287 204.258C599.567 212.385 601.207 221.983 601.207 233.095C601.207 244.206 599.567 253.618 596.287 261.703C593.007 269.767 588.336 275.986 582.273 280.319C576.211 284.652 569.132 286.828 561.056 286.828H561.077ZM561.077 278.059C566.931 278.059 572.018 276.214 576.315 272.545C580.613 268.855 583.893 263.61 586.176 256.81C588.46 250.011 589.581 242.112 589.581 233.136C589.581 224.16 588.439 216.116 586.176 209.296C583.914 202.476 580.613 197.21 576.315 193.479C572.018 189.747 566.952 187.881 561.077 187.881C555.202 187.881 550.136 189.747 545.839 193.479C541.541 197.21 538.24 202.476 535.915 209.296C533.59 216.096 532.427 224.056 532.427 233.136C532.427 242.216 533.59 249.99 535.915 256.748C538.24 263.506 541.541 268.751 545.839 272.483C550.136 276.214 555.202 278.08 561.077 278.08V278.059Z" fill="white"/>
<path d="M620.93 285.916V179.983H631.85V285.916H620.93Z" fill="white"/>
<path d="M712.007 290C700.381 290 690.042 287.575 680.949 282.744C671.856 277.914 664.756 271.177 659.648 262.532C654.541 253.908 651.988 244.103 651.988 233.095C651.988 222.087 654.583 212.841 659.794 204.113C665.005 195.386 672.126 188.503 681.157 183.466C690.208 178.428 700.236 175.899 711.239 175.899C721.141 175.899 730.152 177.972 738.29 182.097C746.428 186.243 752.843 191.944 757.535 199.2C762.227 206.456 764.573 214.541 764.573 223.413C764.573 231.478 763.182 238.319 760.4 243.916C757.618 249.513 753.673 253.742 748.587 256.624C743.48 259.505 737.542 260.936 730.774 260.936C728.055 260.936 725.958 260.459 724.484 259.505C723.01 258.552 722.283 257.059 722.283 255.048V251.876C720.373 254.903 717.757 257.349 714.477 259.215C711.197 261.081 707.024 262.014 701.979 262.014C695.917 262.014 691.163 260.563 687.738 257.619C684.291 254.696 682.589 250.716 682.589 245.657C682.589 242.32 683.419 239.604 685.101 237.489C686.762 235.375 688.921 233.779 691.537 232.721C694.153 231.664 697.35 230.731 701.087 229.923L702.145 229.612L710.782 227.788C710.99 227.684 711.218 227.622 711.467 227.56C711.716 227.518 711.945 227.477 712.152 227.477C714.581 226.875 716.491 226.295 717.903 225.735C719.315 225.176 720.373 224.408 721.079 223.393C721.785 222.377 722.138 221.071 722.138 219.454C722.138 215.93 720.996 213.235 718.733 211.348C716.45 209.482 713.294 208.55 709.266 208.55C705.239 208.55 701.959 209.482 699.198 211.348C696.416 213.214 694.921 216.075 694.734 219.889H684.727C684.935 214.043 687.281 209.648 691.765 206.725C696.27 203.802 702.145 202.33 709.412 202.33C716.678 202.33 722.616 203.927 726.311 207.098C730.006 210.27 731.854 215.204 731.854 221.859V251.379C731.854 252.395 731.999 253.1 732.311 253.493C732.622 253.908 733.224 254.095 734.138 254.095C738.684 254.095 742.691 252.872 746.179 250.384C749.667 247.917 752.365 244.434 754.296 239.936C756.206 235.437 757.182 230.172 757.182 224.118C757.182 216.344 755.21 209.317 751.265 203.015C747.321 196.712 741.84 191.799 734.823 188.254C727.806 184.73 719.937 182.968 711.259 182.968C701.668 182.968 692.949 185.166 685.122 189.56C677.295 193.955 671.171 199.988 666.79 207.637C662.389 215.308 660.188 223.787 660.188 233.053C660.188 242.32 662.368 251.213 666.707 258.78C671.046 266.346 677.17 272.213 685.039 276.401C692.907 280.588 701.917 282.682 712.007 282.682C718.567 282.682 724.712 281.832 730.421 280.112C736.131 278.391 741.611 275.779 746.864 272.234L750.497 277.976C744.643 281.915 738.497 284.88 732.082 286.911C725.667 288.922 718.982 289.938 712.007 289.938V290ZM705.343 255.048C708.478 255.048 711.301 254.447 713.834 253.224C716.367 252.022 718.36 250.301 719.813 248.083C721.287 245.865 722.013 243.232 722.013 240.205V230.213C721.308 230.711 720.29 231.229 718.982 231.726C717.674 232.224 716.097 232.742 714.29 233.24C713.688 233.447 713.086 233.613 712.464 233.758C711.841 233.903 711.259 234.027 710.637 234.131L707.751 234.732C707.439 234.836 707.149 234.919 706.837 234.96C706.526 235.023 706.235 235.085 705.924 235.188C702.997 235.79 700.63 236.474 698.803 237.241C696.976 238.008 695.544 239.003 694.485 240.267C693.426 241.532 692.886 243.17 692.886 245.181C692.886 248.414 694.049 250.861 696.374 252.519C698.699 254.178 701.668 255.028 705.322 255.028L705.343 255.048Z" fill="white"/>
<path d="M785.52 285.916V179.983H797.042V285.916H785.52ZM852.203 285.916C851.29 284.092 850.667 281.729 850.314 278.806C849.961 275.883 849.774 271.902 849.774 266.844V254.281C849.774 249.845 849.297 246.362 848.342 243.833C847.387 241.304 845.643 239.417 843.11 238.153C840.577 236.888 836.986 236.266 832.356 236.266H792.641V226.875H828.702C835.782 226.875 841.553 225.238 846.058 221.962C850.563 218.687 852.805 213.857 852.805 207.513C852.805 201.17 850.48 196.526 845.83 193.582C841.179 190.659 835.159 189.187 827.789 189.187H792.62V179.962H828.391C839.601 179.962 848.445 182.139 854.923 186.472C861.379 190.804 864.618 197.521 864.618 206.601C864.618 213.359 862.48 218.915 858.182 223.248C853.885 227.58 847.74 230.358 839.768 231.561L838.999 230.794C844.854 230.794 849.401 231.623 852.639 233.302C855.878 234.96 858.141 237.49 859.449 240.869C860.757 244.248 861.421 248.808 861.421 254.572V267.445C861.421 271.591 861.587 275.074 861.961 277.893C862.314 280.713 863.144 283.18 864.452 285.315V285.916H852.182H852.203Z" fill="white"/>
<path d="M560.994 241.511C565.729 241.511 569.568 237.678 569.568 232.949C569.568 228.221 565.729 224.388 560.994 224.388C556.258 224.388 552.42 228.221 552.42 232.949C552.42 237.678 556.258 241.511 560.994 241.511Z" fill="white"/>
<path d="M439.69 179.465H428.167V285.916H439.69V179.465Z" fill="white"/>
<path d="M436.202 249.285V240.06H468.173C477.266 240.06 483.993 238.402 488.332 235.064C492.671 231.726 494.85 226.689 494.85 219.931C494.85 213.172 492.754 207.658 488.56 204.258C484.366 200.879 477.972 199.179 469.398 199.179H436.202V189.954H469.855C482.083 189.954 491.238 192.421 497.363 197.376C503.466 202.31 506.539 209.731 506.539 219.62C506.539 229.508 503.342 236.639 496.906 241.636C490.491 246.632 481.231 249.181 469.086 249.285H436.202Z" fill="white"/>
</svg>
