<svg width="20" height="20" viewBox="0 0 20 20" fill="none" xmlns="http://www.w3.org/2000/svg">
<path d="M7.06512 17.4561L2.353 18.3333C2.17093 18.3333 1.99632 18.261 1.86757 18.1323C1.73883 18.0035 1.6665 17.8289 1.6665 17.6468L2.5437 12.9347C2.54378 12.7529 2.616 12.5785 2.7445 12.4499L13.3268 1.86758C13.4555 1.73893 13.6301 1.66667 13.8121 1.66667C13.9941 1.66667 14.1686 1.73893 14.2973 1.86758L18.1323 5.69993C18.2609 5.82866 18.3332 6.0032 18.3332 6.1852C18.3332 6.36719 18.2609 6.54173 18.1323 6.67046L7.54995 17.2553C7.42131 17.3838 7.24695 17.4561 7.06512 17.4561Z" stroke="#17181C" stroke-width="1.5" stroke-linecap="round" stroke-linejoin="round"/>
<path d="M10.9258 5.37037L14.6295 9.07407" stroke="#17181C" stroke-width="1.5" stroke-linecap="round" stroke-linejoin="round"/>
</svg>
