<svg width="176" height="357" viewBox="0 0 176 357" fill="none" xmlns="http://www.w3.org/2000/svg">
<circle cx="0.669174" cy="0.669159" r="0.5" transform="rotate(63.856 0.669174 0.669159)" fill="white"/>
<circle cx="5.5161" cy="10.5437" r="0.5" transform="rotate(63.856 5.5161 10.5437)" fill="white"/>
<circle cx="10.363" cy="20.4183" r="0.5" transform="rotate(63.856 10.363 20.4183)" fill="white"/>
<circle cx="15.2099" cy="30.2929" r="0.5" transform="rotate(63.856 15.2099 30.2929)" fill="white"/>
<circle cx="20.0569" cy="40.1675" r="0.5" transform="rotate(63.856 20.0569 40.1675)" fill="white"/>
<circle cx="24.9038" cy="50.0421" r="0.5" transform="rotate(63.856 24.9038 50.0421)" fill="white"/>
<circle cx="29.7507" cy="59.9167" r="0.5" transform="rotate(63.856 29.7507 59.9167)" fill="white"/>
<circle cx="34.5976" cy="69.7913" r="0.5" transform="rotate(63.856 34.5976 69.7913)" fill="white"/>
<circle cx="39.4443" cy="79.6659" r="0.5" transform="rotate(63.856 39.4443 79.6659)" fill="white"/>
<circle cx="44.2912" cy="89.5404" r="0.5" transform="rotate(63.856 44.2912 89.5404)" fill="white"/>
<circle cx="49.1382" cy="99.415" r="0.5" transform="rotate(63.856 49.1382 99.415)" fill="white"/>
<circle cx="53.9851" cy="109.29" r="0.5" transform="rotate(63.856 53.9851 109.29)" fill="white"/>
<circle cx="58.832" cy="119.164" r="0.5" transform="rotate(63.856 58.832 119.164)" fill="white"/>
<circle cx="63.6789" cy="129.039" r="0.5" transform="rotate(63.856 63.6789 129.039)" fill="white"/>
<circle cx="68.5259" cy="138.913" r="0.5" transform="rotate(63.856 68.5259 138.913)" fill="white"/>
<circle cx="73.3728" cy="148.788" r="0.5" transform="rotate(63.856 73.3728 148.788)" fill="white"/>
<circle cx="78.2197" cy="158.663" r="0.5" transform="rotate(63.856 78.2197 158.663)" fill="white"/>
<circle cx="83.0666" cy="168.537" r="0.5" transform="rotate(63.856 83.0666 168.537)" fill="white"/>
<circle cx="87.9136" cy="178.412" r="0.5" transform="rotate(63.856 87.9136 178.412)" fill="white"/>
<circle cx="92.7605" cy="188.286" r="0.5" transform="rotate(63.856 92.7605 188.286)" fill="white"/>
<circle cx="97.6074" cy="198.161" r="0.5" transform="rotate(63.856 97.6074 198.161)" fill="white"/>
<circle cx="102.454" cy="208.035" r="0.5" transform="rotate(63.856 102.454 208.035)" fill="white"/>
<circle cx="107.301" cy="217.91" r="0.5" transform="rotate(63.856 107.301 217.91)" fill="white"/>
<circle cx="112.148" cy="227.785" r="0.5" transform="rotate(63.856 112.148 227.785)" fill="white"/>
<circle cx="116.995" cy="237.659" r="0.5" transform="rotate(63.856 116.995 237.659)" fill="white"/>
<circle cx="121.842" cy="247.534" r="0.5" transform="rotate(63.856 121.842 247.534)" fill="white"/>
<circle cx="126.689" cy="257.408" r="0.5" transform="rotate(63.856 126.689 257.408)" fill="white"/>
<circle cx="131.536" cy="267.283" r="0.5" transform="rotate(63.856 131.536 267.283)" fill="white"/>
<circle cx="136.383" cy="277.158" r="0.5" transform="rotate(63.856 136.383 277.158)" fill="white"/>
<circle cx="141.229" cy="287.032" r="0.5" transform="rotate(63.856 141.229 287.032)" fill="white"/>
<circle cx="146.076" cy="296.907" r="0.5" transform="rotate(63.856 146.076 296.907)" fill="white"/>
<circle cx="150.923" cy="306.781" r="0.5" transform="rotate(63.856 150.923 306.781)" fill="white"/>
<circle cx="155.77" cy="316.656" r="0.5" transform="rotate(63.856 155.77 316.656)" fill="white"/>
<circle cx="160.617" cy="326.531" r="0.5" transform="rotate(63.856 160.617 326.531)" fill="white"/>
<circle cx="165.464" cy="336.405" r="0.5" transform="rotate(63.856 165.464 336.405)" fill="white"/>
<circle cx="170.311" cy="346.28" r="0.5" transform="rotate(63.856 170.311 346.28)" fill="white"/>
<circle cx="175.158" cy="356.154" r="0.5" transform="rotate(63.856 175.158 356.154)" fill="white"/>
</svg>
